<?xml version="1.0" encoding="UTF-8" standalone="no"?>
<svg width="128px" height="123px" viewBox="0 0 128 123" version="1.1" xmlns="http://www.w3.org/2000/svg" xmlns:xlink="http://www.w3.org/1999/xlink" xmlns:sketch="http://www.bohemiancoding.com/sketch/ns">
    <!-- Generator: Sketch 3.3.3 (12081) - http://www.bohemiancoding.com/sketch -->
    <title>Rectangle 2 Copy 2</title>
    <desc>Created with Sketch.</desc>
    <defs></defs>
    <g id="Page-1" stroke="none" stroke-width="1" fill="none" fill-rule="evenodd" sketch:type="MSPage">
        <path d="M18,101.48602 C18,101.48602 65.2703221,99.4860202 59.0000012,64.2430088 C56.0396088,47.6038056 47.9999993,19.0000001 33.9999993,20.0000001 C28.7146048,20.3775283 20.9999993,23.9999973 19.9999993,34.9999992 C18.9999993,46.0000011 32.9999993,55.0000011 32.9999993,55.0000011 L23.0000003,70.9999973 C23.0000003,70.9999973 -1.00000005,64.0000004 -5.15143483e-14,34.0000001 C1.00000005,3.9999999 29.9999991,1 33.9999991,1 C36.4989983,1 64.0870158,-0.738949576 72.9999991,26.0000001 C75.05422,32.1626628 82.9999991,57.0000001 82.9999991,63.0000001 C91.9999991,51.0000001 103,5.48602023 103,5.48602023 L128,5.48602023 C128,5.48602023 114,70.4860202 80,99.4860202 C46,128.48602 15,122.48602 15,122.48602 L18,101.48602 Z" id="Rectangle-2-Copy-2" fill="#ED5C44" sketch:type="MSShapeGroup"></path>
    </g>
</svg>